# xmcd CD Database Entry
#
# Track frame offsets:
# 150
# 26615
# 53381
# 79098
# 100391
# 121659
# 138271
# 179998
# 194554
# 225709
# 240469
# 257404
# 281724
# 312705
#
# Disc length: 4465 seconds
#
# Revision: 2
# Processed by: cddbd v1.4PL0 Copyright (c) Steve Scherf et al.
# Submitted via: tcd 2.0b
#
DISCID=c2116f0e
DTITLE=El Tri - Sinfonico II
DYEAR=1900
DGENRE=
TTITLE0=San Juanico
TTITLE1=El Blues De La LLanta
TTITLE2=Oye Cantinero
TTITLE3=Perdedor
TTITLE4=Nunca Digas Que No
TTITLE5=Ya Estamos Hartos
TTITLE6=Millones De Niños
TTITLE7=Todo Me Sale Mal
TTITLE8=Parece Facil
TTITLE9=Esclavo Del Rocanrol
TTITLE10=Negro Como Tu Conciencia
TTITLE11=Amnesia
TTITLE12=La Raza Mas Chida
TTITLE13=
EXTD=
EXTT0=
EXTT1=
EXTT2=
EXTT3=
EXTT4=
EXTT5=
EXTT6=
EXTT7=
EXTT8=
EXTT9=
EXTT10=
EXTT11=
EXTT12=
EXTT13=
PLAYORDER=
